<svg width="276" height="276" viewBox="0 0 276 276" fill="none" xmlns="http://www.w3.org/2000/svg">
<g filter="url(#filter0_d_229_2638)">
<path d="M236 138C236 122.268 232.213 106.768 224.958 92.8084C217.704 78.8492 207.195 66.8416 194.321 57.8005C181.447 48.7594 166.585 42.9506 150.992 40.865C135.399 38.7794 119.533 40.4784 104.735 45.8183C89.9377 51.1582 76.6429 59.982 65.9749 71.5441C55.3069 83.1062 47.5791 97.0666 43.4447 112.245C39.3104 127.424 38.891 143.375 42.222 158.75C45.553 174.125 52.5365 188.473 62.5822 200.579L64.8448 198.702C55.1004 186.958 48.3264 173.042 45.0953 158.128C41.8643 143.214 42.2711 127.741 46.2814 113.018C50.2917 98.2946 57.7876 84.753 68.1357 73.5378C78.4837 62.3226 91.3796 53.7634 105.733 48.5837C120.087 43.404 135.477 41.756 150.602 43.779C165.727 45.8021 180.143 51.4366 192.631 60.2065C205.119 68.9763 215.313 80.6237 222.349 94.1642C229.386 107.705 233.06 122.74 233.06 138H236Z" fill="#9D152D" fill-opacity="0.35"/>
<path d="M219.294 101.773C225.109 114.823 227.697 129.081 226.839 143.343C225.982 157.604 221.703 171.449 214.366 183.708C207.029 195.967 196.848 206.279 184.684 213.773C172.52 221.267 158.731 225.723 144.482 226.764C130.233 227.804 115.943 225.399 102.819 219.752C89.6959 214.104 78.1249 205.38 69.0844 194.317C60.0438 183.254 53.7995 170.178 50.8791 156.192C47.9588 142.207 48.4482 127.724 52.306 113.968L54.8769 114.689C51.1347 128.032 50.66 142.081 53.4928 155.646C56.3255 169.212 62.3825 181.897 71.1518 192.628C79.9211 203.359 91.145 211.821 103.875 217.299C116.604 222.777 130.466 225.11 144.287 224.101C158.109 223.091 171.485 218.769 183.283 211.5C195.082 204.231 204.958 194.228 212.075 182.337C219.192 170.446 223.342 157.016 224.174 143.182C225.006 129.349 222.496 115.519 216.855 102.86L219.294 101.773Z" fill="#9D152D" fill-opacity="0.35"/>
<path d="M153.478 59.2227C140.832 56.7381 127.774 57.3344 115.407 60.9612C103.04 64.588 91.7279 71.1388 82.4269 80.0599C73.1259 88.981 66.1092 100.01 61.97 112.215C57.8308 124.42 56.6907 137.442 58.646 150.181C60.6013 162.919 65.5947 175 73.2039 185.401C80.8132 195.803 90.8147 204.22 102.363 209.941C113.912 215.661 126.668 218.518 139.553 218.268C152.438 218.019 165.074 214.671 176.393 208.508L175.241 206.393C164.262 212.371 152.005 215.619 139.506 215.86C127.008 216.102 114.634 213.331 103.432 207.782C92.2303 202.233 82.5288 194.069 75.1478 183.979C67.7668 173.89 62.9233 162.172 61.0266 149.815C59.1299 137.459 60.2359 124.827 64.2509 112.989C68.2659 101.15 75.0721 90.4515 84.0941 81.7981C93.1161 73.1447 104.089 66.7904 116.085 63.2724C128.081 59.7543 140.747 59.1759 153.014 61.586L153.478 59.2227Z" fill="#9D152D" fill-opacity="0.35"/>
</g>
<defs>
<filter id="filter0_d_229_2638" x="0.479858" y="0.47998" width="275.04" height="275.04" filterUnits="userSpaceOnUse" color-interpolation-filters="sRGB">
<feFlood flood-opacity="0" result="BackgroundImageFix"/>
<feColorMatrix in="SourceAlpha" type="matrix" values="0 0 0 0 0 0 0 0 0 0 0 0 0 0 0 0 0 0 127 0" result="hardAlpha"/>
<feOffset/>
<feGaussianBlur stdDeviation="10"/>
<feComposite in2="hardAlpha" operator="out"/>
<feColorMatrix type="matrix" values="0 0 0 0 1 0 0 0 0 0.364706 0 0 0 0 0.0941176 0 0 0 1 0"/>
<feBlend mode="normal" in2="BackgroundImageFix" result="effect1_dropShadow_229_2638"/>
<feBlend mode="normal" in="SourceGraphic" in2="effect1_dropShadow_229_2638" result="shape"/>
</filter>
</defs>
</svg>
