<svg width="688" height="688" viewBox="0 0 688 688" fill="none" xmlns="http://www.w3.org/2000/svg">
<g filter="url(#filter0_d_229_2619)">
<g opacity="0.5">
<mask id="mask0_229_2619" style="mask-type:alpha" maskUnits="userSpaceOnUse" x="153" y="153" width="382" height="382">
<path d="M193.355 228.215C257.301 145.016 376.586 129.409 459.785 193.355C542.984 257.301 558.591 376.586 494.645 459.785C430.699 542.984 311.414 558.591 228.215 494.645C145.016 430.699 129.409 311.414 193.355 228.215ZM438.908 416.946C479.195 364.529 469.362 289.379 416.946 249.092C364.529 208.805 289.379 218.638 249.092 271.054C208.805 323.471 218.638 398.621 271.054 438.908C323.471 479.195 398.621 469.362 438.908 416.946Z" fill="#D9D9D9"/>
</mask>
<g mask="url(#mask0_229_2619)">
<mask id="path-2-inside-1_229_2619" fill="white">
<path d="M297.52 255.458C307.439 250.251 318.163 246.748 329.243 245.095L344 344L297.52 255.458Z"/>
</mask>
<path d="M297.52 255.458C307.439 250.251 318.163 246.748 329.243 245.095L344 344L297.52 255.458Z" stroke="#9D152D" stroke-width="4" mask="url(#path-2-inside-1_229_2619)"/>
</g>
</g>
<mask id="mask1_229_2619" style="mask-type:alpha" maskUnits="userSpaceOnUse" x="153" y="153" width="382" height="382">
<path d="M488.853 466.953C420.948 546.953 301.047 556.759 221.047 488.853C141.046 420.948 131.241 301.047 199.146 221.047C267.052 141.046 386.953 131.241 466.953 199.146C546.953 267.052 556.759 386.953 488.853 466.953ZM252.741 266.538C209.96 316.939 216.137 392.478 266.538 435.259C316.939 478.04 392.478 471.863 435.259 421.462C478.04 371.061 471.863 295.522 421.462 252.741C371.061 209.96 295.522 216.137 252.741 266.538Z" fill="#D9D9D9"/>
</mask>
<g mask="url(#mask1_229_2619)">
<g opacity="0.5">
<mask id="path-4-inside-2_229_2619" fill="white">
<path d="M410.336 489.6C396.633 495.844 382.118 500.121 367.219 502.306L344 344L410.336 489.6Z"/>
</mask>
<path d="M410.336 489.6C396.633 495.844 382.118 500.121 367.219 502.306L344 344L410.336 489.6Z" stroke="#9D152D" stroke-width="2" mask="url(#path-4-inside-2_229_2619)"/>
</g>
</g>
<mask id="mask2_229_2619" style="mask-type:alpha" maskUnits="userSpaceOnUse" x="153" y="153" width="382" height="382">
<path d="M257.652 513.246C164.18 465.557 127.066 351.124 174.754 257.652C222.443 164.18 336.876 127.066 430.348 174.754C523.819 222.443 560.934 336.876 513.246 430.348C465.557 523.819 351.124 560.934 257.652 513.246ZM398.4 237.373C339.512 207.329 267.418 230.712 237.373 289.6C207.329 348.488 230.712 420.582 289.6 450.627C348.488 480.671 420.582 457.288 450.627 398.4C480.671 339.512 457.288 267.418 398.4 237.373Z" fill="#D9D9D9"/>
</mask>
<g mask="url(#mask2_229_2619)">
<g opacity="0.5">
<mask id="path-6-inside-3_229_2619" fill="white">
<path d="M213.912 437.151C197.779 414.621 187.774 388.287 184.877 360.729L344 344L213.912 437.151Z"/>
</mask>
<path d="M213.912 437.151C197.779 414.621 187.774 388.287 184.877 360.729L344 344L213.912 437.151Z" stroke="#9D152D" stroke-width="2" mask="url(#path-6-inside-3_229_2619)"/>
</g>
</g>
<g opacity="0.5">
<mask id="mask3_229_2619" style="mask-type:alpha" maskUnits="userSpaceOnUse" x="153" y="153" width="382" height="382">
<path d="M167.76 414.988C128.554 317.653 175.677 206.965 273.012 167.759C370.347 128.554 481.035 175.677 520.24 273.012C559.446 370.346 512.323 481.034 414.988 520.24C317.653 559.446 206.965 512.323 167.76 414.988ZM455.033 299.276C430.333 237.954 360.599 208.266 299.277 232.966C237.954 257.666 208.266 327.401 232.966 388.723C257.666 450.045 327.401 479.733 388.723 455.033C450.045 430.333 479.734 360.598 455.033 299.276Z" fill="#D9D9D9"/>
</mask>
<g mask="url(#mask3_229_2619)">
<mask id="path-8-inside-4_229_2619" fill="white">
<path d="M244 343.728C244.039 329.473 247.125 315.391 253.052 302.425L344 344L244 343.728Z"/>
</mask>
<path d="M244 343.728C244.039 329.473 247.125 315.391 253.052 302.425L344 344L244 343.728Z" stroke="#9D152D" stroke-width="4" mask="url(#path-8-inside-4_229_2619)"/>
</g>
</g>
<mask id="mask4_229_2619" style="mask-type:alpha" maskUnits="userSpaceOnUse" x="153" y="153" width="382" height="382">
<path d="M266.504 170.523C362.313 127.723 474.677 170.695 517.477 266.504C560.277 362.313 517.305 474.678 421.496 517.477C325.687 560.277 213.323 517.305 170.523 421.496C127.723 325.688 170.695 213.323 266.504 170.523ZM392.823 453.293C453.184 426.328 480.257 355.537 453.293 295.177C426.328 234.816 355.537 207.743 295.176 234.708C234.816 261.672 207.743 332.463 234.707 392.824C261.672 453.184 332.463 480.257 392.823 453.293Z" fill="#D9D9D9"/>
</mask>
<g mask="url(#mask4_229_2619)">
<g opacity="0.5">
<mask id="path-10-inside-5_229_2619" fill="white">
<path d="M347.098 184.03C357.439 184.23 367.737 185.433 377.846 187.621L344 344L347.098 184.03Z"/>
</mask>
<path d="M347.098 184.03C357.439 184.23 367.737 185.433 377.846 187.621L344 344L347.098 184.03Z" stroke="#9D152D" stroke-width="2" mask="url(#path-10-inside-5_229_2619)"/>
</g>
</g>
<g opacity="0.5">
<mask id="mask5_229_2619" style="mask-type:alpha" maskUnits="userSpaceOnUse" x="153" y="153" width="382" height="382">
<path d="M423.904 171.619C519.108 215.749 560.511 328.701 516.381 423.904C472.251 519.108 359.299 560.511 264.096 516.381C168.892 472.251 127.489 359.299 171.619 264.096C215.749 168.892 328.701 127.489 423.904 171.619ZM293.659 452.602C353.639 480.405 424.8 454.32 452.602 394.341C480.405 334.361 454.32 263.2 394.341 235.398C334.361 207.595 263.2 233.68 235.398 293.659C207.595 353.639 233.68 424.8 293.659 452.602Z" fill="#D9D9D9"/>
</mask>
<g mask="url(#mask5_229_2619)">
<mask id="path-12-inside-6_229_2619" fill="white">
<path d="M420.661 279.789C428.026 288.582 433.824 298.577 437.8 309.336L344 344L420.661 279.789Z"/>
</mask>
<path d="M420.661 279.789C428.026 288.582 433.824 298.577 437.8 309.336L344 344L420.661 279.789Z" stroke="#9D152D" stroke-width="4" mask="url(#path-12-inside-6_229_2619)"/>
</g>
</g>
<circle cx="344" cy="344" r="119.5" stroke="#9D152D"/>
<circle opacity="0.15" cx="344" cy="344" r="131.5" stroke="#9D152D"/>
<circle opacity="0.1" cx="344" cy="344" r="144.5" stroke="#9D152D"/>
<circle opacity="0.08" cx="344" cy="344" r="159.5" stroke="#9D152D"/>
<circle opacity="0.4" cx="344" cy="344" r="144" stroke="#9D152D" stroke-width="2" stroke-dasharray="1 300"/>
<circle opacity="0.4" cx="344" cy="344" r="131" stroke="#9D152D" stroke-width="2" stroke-dasharray="1 300"/>
<circle cx="344" cy="344" r="159" stroke="#FF4F18" stroke-width="2" stroke-dasharray="1 300"/>
</g>
<defs>
<filter id="filter0_d_229_2619" x="0.193359" y="0.193359" width="687.613" height="687.613" filterUnits="userSpaceOnUse" color-interpolation-filters="sRGB">
<feFlood flood-opacity="0" result="BackgroundImageFix"/>
<feColorMatrix in="SourceAlpha" type="matrix" values="0 0 0 0 0 0 0 0 0 0 0 0 0 0 0 0 0 0 127 0" result="hardAlpha"/>
<feOffset/>
<feGaussianBlur stdDeviation="38"/>
<feColorMatrix type="matrix" values="0 0 0 0 1 0 0 0 0 1 0 0 0 0 1 0 0 0 0.3 0"/>
<feBlend mode="normal" in2="BackgroundImageFix" result="effect1_dropShadow_229_2619"/>
<feBlend mode="normal" in="SourceGraphic" in2="effect1_dropShadow_229_2619" result="shape"/>
</filter>
</defs>
</svg>
